<svg width="102.7050048828125px" height="182.69010620117186px" xmlns="http://www.w3.org/2000/svg" viewBox="198.64749755859376 -16.34505310058593 102.7050048828125 182.69010620117186" style="background: none;" preserveAspectRatio="xMidYMid"><defs><filter id="editing-offset"><feFlood flood-color="#5699d2" flood-opacity="0.5" result="c1"></feFlood><feFlood flood-color="#d8ebf9" flood-opacity="0.5" result="c2"></feFlood><feFlood flood-color="#71c2cc" flood-opacity="0.5" result="c3"></feFlood><feComposite operator="in" in="c1" in2="SourceAlpha" result="text-c1"></feComposite><feComposite operator="in" in="c2" in2="SourceAlpha" result="text-c2"></feComposite><feComposite operator="in" in="c3" in2="SourceAlpha" result="text-c3"></feComposite><feOffset in="text-c1" dx="-10" dy="0" result="text1"></feOffset><feOffset in="text-c2" dx="10" dy="0" result="text2"></feOffset><feOffset in="text-c3" dx="0" dy="0" result="text3"></feOffset><feMerge><feMergeNode in="text1"></feMergeNode><feMergeNode in="text2"></feMergeNode><feMergeNode in="text3"></feMergeNode></feMerge></filter></defs><g filter="url(#editing-offset)"><g transform="translate(216.85000038146973, 109.45000076293945)"><path d="M40.40-36.40L40.40-36.40Q47.50-35.20 51.90-31.40L51.90-31.40L51.90-31.40Q56.30-27.60 56.30-19.60L56.30-19.60L56.30-19.60Q56.30 0 29 0L29 0L10 0L10-68.90L26.30-68.90L26.30-68.90Q39.40-68.90 46.35-64.60L46.35-64.60L46.35-64.60Q53.30-60.30 53.30-51.50L53.30-51.50L53.30-51.50Q53.30-45.50 49.55-41.50L49.55-41.50L49.55-41.50Q45.80-37.50 40.40-36.40L40.40-36.40ZM27.30-61.40L19.50-61.40L19.50-39.70L29.90-39.70L29.90-39.70Q35.90-39.70 39.75-42.60L39.75-42.60L39.75-42.60Q43.60-45.50 43.60-50.80L43.60-50.80L43.60-50.80Q43.60-56.80 39.55-59.10L39.55-59.10L39.55-59.10Q35.50-61.40 27.30-61.40L27.30-61.40ZM29-7.60L29-7.60Q37.40-7.60 41.85-10.10L41.85-10.10L41.85-10.10Q46.30-12.60 46.30-19.60L46.30-19.60L46.30-19.60Q46.30-26.40 42-29.40L42-29.40L42-29.40Q37.70-32.40 30.80-32.40L30.80-32.40L19.50-32.40L19.50-7.60L29-7.60Z"></path></g></g><style>text {
  font-size: 64px;
  font-family: Arial Black;
  dominant-baseline: central;
  text-anchor: middle;
}</style></svg>