<svg width="293.2962280273437px" height="182.68999633789062px" xmlns="http://www.w3.org/2000/svg" viewBox="103.35188598632814 -16.34499816894531 293.2962280273437 182.68999633789062" style="background: none;" preserveAspectRatio="xMidYMid"><defs><filter id="editing-offset"><feFlood flood-color="#5699d2" flood-opacity="0.5" result="c1"></feFlood><feFlood flood-color="#d8ebf9" flood-opacity="0.5" result="c2"></feFlood><feFlood flood-color="#71c2cc" flood-opacity="0.5" result="c3"></feFlood><feComposite operator="in" in="c1" in2="SourceAlpha" result="text-c1"></feComposite><feComposite operator="in" in="c2" in2="SourceAlpha" result="text-c2"></feComposite><feComposite operator="in" in="c3" in2="SourceAlpha" result="text-c3"></feComposite><feOffset in="text-c1" dx="-10" dy="0" result="text1"></feOffset><feOffset in="text-c2" dx="10" dy="0" result="text2"></feOffset><feOffset in="text-c3" dx="0" dy="0" result="text3"></feOffset><feMerge><feMergeNode in="text1"></feMergeNode><feMergeNode in="text2"></feMergeNode><feMergeNode in="text3"></feMergeNode></feMerge></filter></defs><g filter="url(#editing-offset)"><g transform="translate(145.2265625, 123.1500015258789)"><path d="M40.40-36.40L40.40-36.40Q47.50-35.20 51.90-31.40L51.90-31.40L51.90-31.40Q56.30-27.60 56.30-19.60L56.30-19.60L56.30-19.60Q56.30 0 29 0L29 0L10 0L10-68.90L26.30-68.90L26.30-68.90Q39.40-68.90 46.35-64.60L46.35-64.60L46.35-64.60Q53.30-60.30 53.30-51.50L53.30-51.50L53.30-51.50Q53.30-45.50 49.55-41.50L49.55-41.50L49.55-41.50Q45.80-37.50 40.40-36.40L40.40-36.40ZM27.30-61.40L19.50-61.40L19.50-39.70L29.90-39.70L29.90-39.70Q35.90-39.70 39.75-42.60L39.75-42.60L39.75-42.60Q43.60-45.50 43.60-50.80L43.60-50.80L43.60-50.80Q43.60-56.80 39.55-59.10L39.55-59.10L39.55-59.10Q35.50-61.40 27.30-61.40L27.30-61.40ZM29-7.60L29-7.60Q37.40-7.60 41.85-10.10L41.85-10.10L41.85-10.10Q46.30-12.60 46.30-19.60L46.30-19.60L46.30-19.60Q46.30-26.40 42-29.40L42-29.40L42-29.40Q37.70-32.40 30.80-32.40L30.80-32.40L19.50-32.40L19.50-7.60L29-7.60ZM80.80 1.20L80.80 1.20Q75.70 1.20 72.75-1.85L72.75-1.85L72.75-1.85Q69.80-4.90 69.80-10.40L69.80-10.40L69.80-73.90L79-75L79-10.60L79-10.60Q79-8.40 79.75-7.40L79.75-7.40L79.75-7.40Q80.50-6.40 82.30-6.40L82.30-6.40L82.30-6.40Q84.20-6.40 85.70-7L85.70-7L88.10-0.60L88.10-0.60Q84.80 1.20 80.80 1.20L80.80 1.20ZM119.40-53.90L119.40-53.90Q130.50-53.90 136.65-46.50L136.65-46.50L136.65-46.50Q142.80-39.10 142.80-26.40L142.80-26.40L142.80-26.40Q142.80-18.20 140-11.95L140-11.95L140-11.95Q137.20-5.70 131.90-2.25L131.90-2.25L131.90-2.25Q126.60 1.20 119.30 1.20L119.30 1.20L119.30 1.20Q108.20 1.20 102.00-6.20L102.00-6.20L102.00-6.20Q95.80-13.60 95.80-26.30L95.80-26.30L95.80-26.30Q95.80-34.50 98.60-40.75L98.60-40.75L98.60-40.75Q101.40-47 106.70-50.45L106.70-50.45L106.70-50.45Q112.00-53.90 119.40-53.90L119.40-53.90ZM119.40-46.50L119.40-46.50Q105.70-46.50 105.70-26.30L105.70-26.30L105.70-26.30Q105.70-6.20 119.30-6.20L119.30-6.20L119.30-6.20Q132.90-6.20 132.90-26.40L132.90-26.40L132.90-26.40Q132.90-46.50 119.40-46.50L119.40-46.50ZM197.80-58.60L200.50-50.30L200.50-50.30Q197.50-49.30 193.90-49L193.90-49L193.90-49Q190.30-48.70 185.10-48.70L185.10-48.70L185.10-48.70Q194.40-44.50 194.40-35.40L194.40-35.40L194.40-35.40Q194.40-27.50 189-22.50L189-22.50L189-22.50Q183.60-17.50 174.30-17.50L174.30-17.50L174.30-17.50Q170.70-17.50 167.60-18.50L167.60-18.50L167.60-18.50Q166.40-17.70 165.70-16.35L165.70-16.35L165.70-16.35Q165-15 165-13.60L165-13.60L165-13.60Q165-9.30 171.90-9.30L171.90-9.30L180.30-9.30L180.30-9.30Q185.60-9.30 189.70-7.40L189.70-7.40L189.70-7.40Q193.80-5.50 196.05-2.20L196.05-2.20L196.05-2.20Q198.30 1.10 198.30 5.30L198.30 5.30L198.30 5.30Q198.30 13 192 17.15L192 17.15L192 17.15Q185.70 21.30 173.60 21.30L173.60 21.30L173.60 21.30Q165.10 21.30 160.15 19.55L160.15 19.55L160.15 19.55Q155.20 17.80 153.10 14.30L153.10 14.30L153.10 14.30Q151 10.80 151 5.30L151 5.30L159.30 5.30L159.30 5.30Q159.30 8.50 160.50 10.35L160.50 10.35L160.50 10.35Q161.70 12.20 164.80 13.15L164.80 13.15L164.80 13.15Q167.90 14.10 173.60 14.10L173.60 14.10L173.60 14.10Q181.90 14.10 185.45 12.05L185.45 12.05L185.45 12.05Q189 10 189 5.90L189 5.90L189 5.90Q189 2.20 186.20 0.30L186.20 0.30L186.20 0.30Q183.40-1.60 178.40-1.60L178.40-1.60L170.10-1.60L170.10-1.60Q163.40-1.60 159.95-4.45L159.95-4.45L159.95-4.45Q156.50-7.30 156.50-11.60L156.50-11.60L156.50-11.60Q156.50-14.20 158-16.60L158-16.60L158-16.60Q159.50-19 162.30-20.90L162.30-20.90L162.30-20.90Q157.70-23.30 155.55-26.85L155.55-26.85L155.55-26.85Q153.40-30.40 153.40-35.50L153.40-35.50L153.40-35.50Q153.40-40.80 156.05-45L156.05-45L156.05-45Q158.70-49.20 163.35-51.55L163.35-51.55L163.35-51.55Q168-53.90 173.70-53.90L173.70-53.90L173.70-53.90Q179.90-53.80 184.10-54.35L184.10-54.35L184.10-54.35Q188.30-54.90 191.05-55.85L191.05-55.85L191.05-55.85Q193.80-56.80 197.80-58.60L197.80-58.60ZM173.70-47.30L173.70-47.30Q168.50-47.30 165.65-44.05L165.65-44.05L165.65-44.05Q162.80-40.80 162.80-35.50L162.80-35.50L162.80-35.50Q162.80-30.10 165.70-26.85L165.70-26.85L165.70-26.85Q168.60-23.60 173.90-23.60L173.90-23.60L173.90-23.60Q179.30-23.60 182.15-26.75L182.15-26.75L182.15-26.75Q185-29.90 185-35.60L185-35.60L185-35.60Q185-47.30 173.70-47.30L173.70-47.30Z"></path></g></g><style>text {
  font-size: 64px;
  font-family: Arial Black;
  dominant-baseline: central;
  text-anchor: middle;
}</style></svg>