<?xml version="1.0" encoding="utf-8"?>
<!-- Generator: Adobe Illustrator 24.0.0, SVG Export Plug-In . SVG Version: 6.00 Build 0)  -->
<svg version="1.1" id="Capa_1" xmlns="http://www.w3.org/2000/svg" xmlns:xlink="http://www.w3.org/1999/xlink" x="0px" y="0px"
	 viewBox="0 0 205.9 100" style="enable-background:new 0 0 205.9 100;" xml:space="preserve">
<style type="text/css">
	.st0{filter:url(#editing-offset);}
</style>
<filter  id="editing-offset">
	<feFlood  flood-color="#00a5b8" flood-opacity="0.5" result="c1"></feFlood>
	<feFlood  flood-color="#0087aa" flood-opacity="0.5" result="c2"></feFlood>
	<feFlood  flood-color="#0000ff" flood-opacity="0.5" result="c3"></feFlood>
	<feComposite  in="c1" in2="SourceAlpha" operator="in" result="text-c1"></feComposite>
	<feComposite  in="c2" in2="SourceAlpha" operator="in" result="text-c2"></feComposite>
	<feComposite  in="c3" in2="SourceAlpha" operator="in" result="text-c3"></feComposite>
	<feOffset  dx="-10" dy="0" in="text-c1" result="text1"></feOffset>
	<feOffset  dx="10" dy="0" in="text-c2" result="text2"></feOffset>
	<feOffset  dx="0" dy="0" in="text-c3" result="text3"></feOffset>
	<feMerge>
		<feMergeNode  in="text1"></feMergeNode>
		<feMergeNode  in="text2"></feMergeNode>
		<feMergeNode  in="text3"></feMergeNode>
	</feMerge>
</filter>
<g class="st0">
	<g transform="translate(152.3937530517578, 125)">
		<path d="M-102.3-88.1L-102.3-88.1c4.4,1.1,7.8,3.1,10.1,6.2l0,0l0,0c2.3,3,3.5,7,3.5,11.9l0,0l0,0c0,6.2-2,11.1-5.9,14.7l0,0l0,0
			c-4,3.6-9.4,5.3-16.3,5.3l0,0h-26.4v-70h22.1l0,0c6.4,0,11.3,1.4,14.8,4.3l0,0l0,0c3.5,2.9,5.3,7.1,5.3,12.8l0,0l0,0
			c0,3.3-0.6,6.3-1.8,8.9l0,0l0,0C-98.2-91.4-99.9-89.4-102.3-88.1L-102.3-88.1z M-127.9-111.5v20.6h11.4l0,0c3.7,0,6.6-0.8,8.5-2.3
			l0,0l0,0c2-1.5,3-4.2,3-8l0,0l0,0c0-3.9-1-6.6-3-8.1l0,0l0,0c-2-1.5-4.8-2.3-8.5-2.3l0,0H-127.9z M-111.8-58.6L-111.8-58.6
			c3.9,0,7-1,9.3-3l0,0l0,0c2.3-2,3.4-4.9,3.4-8.8l0,0l0,0c0-8-4.2-12-12.7-12l0,0h-16.1v23.7H-111.8z M-67-49L-67-49
			c-4.4,0-7.6-1.1-9.7-3.4l0,0l0,0c-2-2.3-3.1-5.1-3.1-8.4l0,0V-125h9v59l0,0c0,2.9,0.2,5.1,0.6,6.4l0,0l0,0
			c0.4,1.3,1.1,2.2,2.2,2.7l0,0l0,0c1.1,0.5,2.8,0.7,5.2,0.7l0,0l-1.3,7.2H-67z M-34.6-49L-34.6-49c-5,0-9.3-1.1-13-3.3l0,0l0,0
			c-3.7-2.2-6.5-5.3-8.4-9.2l0,0l0,0c-1.9-3.9-2.9-8.2-2.9-13l0,0l0,0c0-4.8,1-9.1,2.9-13l0,0l0,0c1.9-3.9,4.7-6.9,8.4-9.2l0,0l0,0
			c3.7-2.2,8-3.3,13-3.3l0,0l0,0c4.9,0,9.2,1.1,12.9,3.3l0,0l0,0c3.7,2.2,6.5,5.3,8.4,9.2l0,0l0,0c1.9,3.9,2.9,8.2,2.9,13l0,0l0,0
			c0,4.8-1,9.1-2.9,13l0,0l0,0c-1.9,3.9-4.7,6.9-8.4,9.2l0,0l0,0C-25.3-50.1-29.6-49-34.6-49L-34.6-49z M-34.6-57L-34.6-57
			c4.8,0,8.5-1.5,11.1-4.6l0,0l0,0c2.6-3.1,4-7.4,4-12.9l0,0l0,0c0-5.5-1.3-9.8-4-12.9l0,0l0,0C-26-90.5-29.8-92-34.6-92l0,0l0,0
			c-4.8,0-8.5,1.5-11.2,4.6l0,0l0,0c-2.6,3.1-4,7.4-4,12.9l0,0l0,0c0,5.5,1.3,9.8,4,12.9l0,0l0,0C-43.1-58.5-39.4-57-34.6-57
			L-34.6-57z M18.8-25L18.8-25C11.9-25,6.3-26.3,2-28.8l0,0l0,0c-4.3-2.5-6.5-6.1-6.5-10.8l0,0l0,0c0-5.1,2.8-9,8.5-11.5l0,0l0,0
			c-3.2-1.6-4.8-3.7-4.8-6.2l0,0l0,0c0-3.2,1.9-5.6,5.8-7.1l0,0l0,0c-2.7-1.7-4.8-3.9-6.3-6.8l0,0l0,0c-1.5-2.9-2.2-6.1-2.2-9.7l0,0
			l0,0c0-3.6,0.8-6.8,2.5-9.8l0,0l0,0c1.6-2.9,4-5.2,7-6.8l0,0l0,0c3-1.7,6.6-2.5,10.8-2.5l0,0l0,0c4.4,0,8.4,1.3,12,3.8l0,0l0,0
			c3.5-2,7.6-3,12.2-3l0,0h0.8l-1.1,6h-2.3l0,0c-0.6,0-1.5,0.1-2.6,0.2l0,0l0,0c-1.1,0.1-2.1,0.3-3,0.5l0,0l0,0
			c1.4,1.6,2.5,3.4,3.2,5.4l0,0l0,0c0.7,2,1.1,4.1,1.1,6.2l0,0l0,0c0,3.7-0.8,7.1-2.4,10.1l0,0l0,0c-1.6,3-4,5.3-7.1,7l0,0l0,0
			c-3.1,1.7-6.7,2.5-10.8,2.5l0,0l0,0c-2.4,0-4.6-0.3-6.6-0.9l0,0l0,0c-1.5,0.5-2.3,1.4-2.3,2.6l0,0l0,0c0,1.6,1.8,2.7,5.5,3.2l0,0
			l13.1,2.1l0,0c5.5,0.9,9.6,2.4,12.4,4.7l0,0l0,0c2.8,2.3,4.2,5.4,4.2,9.4l0,0l0,0c0,5-2.1,8.8-6.4,11.4l0,0l0,0
			C32.3-26.3,26.4-25,18.8-25L18.8-25z M16.7-68.5L16.7-68.5c3.7,0,6.6-1.1,8.6-3.3l0,0l0,0c2-2.2,3.1-5.2,3.1-9l0,0l0,0
			c0-3.6-1-6.5-3.1-8.7l0,0l0,0c-2-2.2-4.9-3.3-8.6-3.3l0,0l0,0c-3.7,0-6.6,1.1-8.6,3.3l0,0l0,0c-2,2.2-3,5.1-3,8.7l0,0l0,0
			c0,3.7,1,6.7,3,9l0,0l0,0C10.1-69.6,13-68.5,16.7-68.5L16.7-68.5z M19.6-33L19.6-33c4.6,0,8.1-0.6,10.6-1.8l0,0l0,0
			c2.5-1.2,3.7-2.9,3.7-5.2l0,0l0,0c0-1.7-0.8-3.1-2.3-4.2l0,0l0,0c-1.5-1-3.8-1.8-6.8-2.4l0,0l-14-2.4l0,0c-2,0.9-3.6,2.1-4.9,3.5
			l0,0l0,0c-1.3,1.4-1.9,2.9-1.9,4.5l0,0l0,0c0,2.7,1.4,4.8,4.1,6l0,0l0,0C11-33.7,14.8-33,19.6-33L19.6-33z"/>
	</g>
</g>
</svg>
